HIERARCHY
ROOT Hips
{
  OFFSET 1.167 43.715 -232.587
  CHANNELS 6 Xposition Yposition Zposition Zrotation Xrotation Yrotation
  JOINT LeftUpLeg
  {
    OFFSET 7.622 -5.328 4.658
    CHANNELS 6 Xposition Yposition Zposition Zrotation Xrotation Yrotation
    JOINT LeftLeg
    {
      OFFSET -0.000 -46.913 0.000
      CHANNELS 6 Xposition Yposition Zposition Zrotation Xrotation Yrotation
      JOINT LeftFoot
      {
        OFFSET -0.000 -39.317 -0.000
        CHANNELS 6 Xposition Yposition Zposition Zrotation Xrotation Yrotation
        End Site
        {
          OFFSET 0.000 -8.946 5.165
        }
      }
    }
  }
  JOINT RightUpLeg
  {
    OFFSET -7.629 -5.799 4.786
    CHANNELS 6 Xposition Yposition Zposition Zrotation Xrotation Yrotation
    JOINT RightLeg
    {
      OFFSET 0.000 -47.605 0.000
      CHANNELS 6 Xposition Yposition Zposition Zrotation Xrotation Yrotation
      JOINT RightFoot
      {
        OFFSET -0.000 -38.770 -0.000
        CHANNELS 6 Xposition Yposition Zposition Zrotation Xrotation Yrotation
        End Site
        {
          OFFSET 0.000 -8.370 4.832
        }
      }
    }
  }
  JOINT Spine
  {
    OFFSET 0.000 4.506 -4.506
    CHANNELS 6 Xposition Yposition Zposition Zrotation Xrotation Yrotation
    JOINT LeftShoulder
    {
      OFFSET -0.000 48.160 0.000
      CHANNELS 6 Xposition Yposition Zposition Zrotation Xrotation Yrotation
      JOINT LeftArm
      {
        OFFSET 27.761 0.000 -0.000
        CHANNELS 6 Xposition Yposition Zposition Zrotation Xrotation Yrotation
        JOINT LeftForeArm
        {
          OFFSET 24.383 0.000 0.000
          CHANNELS 6 Xposition Yposition Zposition Zrotation Xrotation Yrotation
          JOINT LeftHand
          {
            OFFSET 24.414 0.000 -0.000
            CHANNELS 6 Xposition Yposition Zposition Zrotation Xrotation Yrotation
            JOINT LeftHandThumb1
            {
            OFFSET 4.970 -0.620 3.390
            CHANNELS 6 Xposition Yposition Zposition Zrotation Xrotation Yrotation
              JOINT LeftHandThumb2
              {
              OFFSET 2.150 -0.000 0.000
              CHANNELS 6 Xposition Yposition Zposition Zrotation Xrotation Yrotation
                JOINT LeftHandThumb3
                {
                OFFSET 2.200 -0.000 0.000
                CHANNELS 6 Xposition Yposition Zposition Zrotation Xrotation Yrotation
                  JOINT LeftHandThumb4
                  {
                  OFFSET 1.700 -0.000 0.000
                  CHANNELS 6 Xposition Yposition Zposition Zrotation Xrotation Yrotation
                  }
                }
              }
            }
            JOINT LeftHandIndex1
            {
            OFFSET 8.730 0.680 2.070
            CHANNELS 6 Xposition Yposition Zposition Zrotation Xrotation Yrotation
              JOINT LeftHandIndex2
              {
              OFFSET 2.670 -0.000 0.000
              CHANNELS 6 Xposition Yposition Zposition Zrotation Xrotation Yrotation
                JOINT LeftHandIndex3
                {
                OFFSET 2.130 -0.000 0.000
                CHANNELS 6 Xposition Yposition Zposition Zrotation Xrotation Yrotation
                  JOINT LeftHandIndex4
                  {
                  OFFSET 1.800 -0.000 0.000
                  CHANNELS 6 Xposition Yposition Zposition Zrotation Xrotation Yrotation
                  }
                }
              }
            }
            JOINT LeftHandMiddle1
            {
            OFFSET 9.220 0.670 0.550
            CHANNELS 6 Xposition Yposition Zposition Zrotation Xrotation Yrotation
              JOINT LeftHandMiddle2
              {
              OFFSET 2.660 -0.000 0.000
              CHANNELS 6 Xposition Yposition Zposition Zrotation Xrotation Yrotation
                JOINT LeftHandMiddle3
                {
                OFFSET 2.280 -0.000 0.000
                CHANNELS 6 Xposition Yposition Zposition Zrotation Xrotation Yrotation
                  JOINT LeftHandMiddle4
                  {
                  OFFSET 1.500 -0.000 0.000
                  CHANNELS 6 Xposition Yposition Zposition Zrotation Xrotation Yrotation
                  }
                }
              }
            }
            JOINT LeftHandRing1
            {
            OFFSET 9.250 0.670 -1.130
            CHANNELS 6 Xposition Yposition Zposition Zrotation Xrotation Yrotation
              JOINT LeftHandRing2
              {
              OFFSET 2.470 -0.000 0.000
              CHANNELS 6 Xposition Yposition Zposition Zrotation Xrotation Yrotation
                JOINT LeftHandRing3
                {
                OFFSET 2.210 -0.000 0.000
                CHANNELS 6 Xposition Yposition Zposition Zrotation Xrotation Yrotation
                  JOINT LeftHandRing4
                  {
                  OFFSET 1.800 -0.000 0.000
                  CHANNELS 6 Xposition Yposition Zposition Zrotation Xrotation Yrotation
                  }
                }
              }
            }
            JOINT LeftHandPinky1
            {
            OFFSET 9.350 0.660 -2.720
            CHANNELS 6 Xposition Yposition Zposition Zrotation Xrotation Yrotation
              JOINT LeftHandPinky2
              {
              OFFSET 1.630 -0.000 0.000
              CHANNELS 6 Xposition Yposition Zposition Zrotation Xrotation Yrotation
                JOINT LeftHandPinky3
                {
                OFFSET 1.710 -0.000 0.000
                CHANNELS 6 Xposition Yposition Zposition Zrotation Xrotation Yrotation
                  JOINT LeftHandPinky4
                  {
                  OFFSET 1.800 -0.000 0.000
                  CHANNELS 6 Xposition Yposition Zposition Zrotation Xrotation Yrotation
                  }
                }
              }
            }
          }
        }
      }
    }
    JOINT RightShoulder
    {
      OFFSET -0.000 48.160 0.000
      CHANNELS 6 Xposition Yposition Zposition Zrotation Xrotation Yrotation
      JOINT RightArm
      {
        OFFSET -28.693 0.000 -0.000
        CHANNELS 6 Xposition Yposition Zposition Zrotation Xrotation Yrotation
        JOINT RightForeArm
        {
          OFFSET -24.798 0.000 0.000
          CHANNELS 6 Xposition Yposition Zposition Zrotation Xrotation Yrotation
          JOINT RightHand
          {
            OFFSET -25.728 0.000 -0.000
            CHANNELS 6 Xposition Yposition Zposition Zrotation Xrotation Yrotation
            JOINT RightHandThumb1
            {
            OFFSET -4.970 -0.620 3.390
            CHANNELS 6 Xposition Yposition Zposition Zrotation Xrotation Yrotation
              JOINT RightHandThumb2
              {
              OFFSET -2.150 0.000 0.000
              CHANNELS 6 Xposition Yposition Zposition Zrotation Xrotation Yrotation
                JOINT RightHandThumb3
                {
                OFFSET -2.200 0.000 0.000
                CHANNELS 6 Xposition Yposition Zposition Zrotation Xrotation Yrotation
                  JOINT RightHandThumb4
                  {
                  OFFSET -1.700 0.000 0.000
                  CHANNELS 6 Xposition Yposition Zposition Zrotation Xrotation Yrotation
                  }
                }
              }
            }
            JOINT RightHandIndex1
            {
            OFFSET -8.730 0.680 2.070
            CHANNELS 6 Xposition Yposition Zposition Zrotation Xrotation Yrotation
              JOINT RightHandIndex2
              {
              OFFSET -2.670 0.000 0.000
              CHANNELS 6 Xposition Yposition Zposition Zrotation Xrotation Yrotation
                JOINT RightHandIndex3
                {
                OFFSET -2.130 0.000 0.000
                CHANNELS 6 Xposition Yposition Zposition Zrotation Xrotation Yrotation
                  JOINT RightHandIndex4
                  {
                  OFFSET -1.800 0.000 0.000
                  CHANNELS 6 Xposition Yposition Zposition Zrotation Xrotation Yrotation
                  }
                }
              }
            }
            JOINT RightHandMiddle1
            {
            OFFSET -9.220 0.670 0.550
            CHANNELS 6 Xposition Yposition Zposition Zrotation Xrotation Yrotation
              JOINT RightHandMiddle2
              {
              OFFSET -2.660 0.000 0.000
              CHANNELS 6 Xposition Yposition Zposition Zrotation Xrotation Yrotation
                JOINT RightHandMiddle3
                {
                OFFSET -2.280 0.000 0.000
                CHANNELS 6 Xposition Yposition Zposition Zrotation Xrotation Yrotation
                  JOINT RightHandMiddle4
                  {
                  OFFSET -1.500 0.000 0.000
                  CHANNELS 6 Xposition Yposition Zposition Zrotation Xrotation Yrotation
                  }
                }
              }
            }
            JOINT RightHandRing1
            {
            OFFSET -9.250 0.670 -1.130
            CHANNELS 6 Xposition Yposition Zposition Zrotation Xrotation Yrotation
              JOINT RightHandRing2
              {
              OFFSET -2.470 0.000 0.000
              CHANNELS 6 Xposition Yposition Zposition Zrotation Xrotation Yrotation
                JOINT RightHandRing3
                {
                OFFSET -2.210 0.000 0.000
                CHANNELS 6 Xposition Yposition Zposition Zrotation Xrotation Yrotation
                  JOINT RightHandRing4
                  {
                  OFFSET -1.800 0.000 0.000
                  CHANNELS 6 Xposition Yposition Zposition Zrotation Xrotation Yrotation
                  }
                }
              }
            }
            JOINT RightHandPinky1
            {
            OFFSET -9.350 0.660 -2.720
            CHANNELS 6 Xposition Yposition Zposition Zrotation Xrotation Yrotation
              JOINT RightHandPinky2
              {
              OFFSET -1.630 0.000 0.000
              CHANNELS 6 Xposition Yposition Zposition Zrotation Xrotation Yrotation
                JOINT RightHandPinky3
                {
                OFFSET -1.710 0.000 0.000
                CHANNELS 6 Xposition Yposition Zposition Zrotation Xrotation Yrotation
                  JOINT RightHandPinky4
                  {
                  OFFSET -1.800 0.000 0.000
                  CHANNELS 6 Xposition Yposition Zposition Zrotation Xrotation Yrotation
                  }
                }
              }
            }
          }
        }
      }
    }
    JOINT Neck
    {
      OFFSET -0.000 48.160 0.000
      CHANNELS 6 Xposition Yposition Zposition Zrotation Xrotation Yrotation
      JOINT Head
      {
        OFFSET -0.000 4.879 -0.000
        CHANNELS 6 Xposition Yposition Zposition Zrotation Xrotation Yrotation
        End Site
        {
          OFFSET -0.000 0.020 -0.000
        }
      }
    }
  }
}
MOTION
Frames:	6
Frame Time:	0.0333333
0.742849 10.7962 -223.788 66.7546 82.9322 -72.0467 7.16704 -5.49839 4.19321 154.071 -59.5005 158.158 2.98023e-06 -40.4863 -5.96046e-05 -6.73014 64.476 4.4582e-06 3.91155e-06 -32.693 3.57628e-05 39.851 -55.1661 46.8995 -7.03684 -4.31855 5.05423 171.508 -65.2137 170.957 0 -40.4129 -1.19209e-05 3.34638 67.1554 1.20952e-05 2.98023e-06 -31.3114 2.38419e-05 -21.7491 -28.258 -21.59 5.96046e-06 4.53379 -4.53375 -0.0912708 -41.2858 0.152473 -5.96046e-06 48.1607 -2.38419e-05 -57.0645 2.04906e-05 1.53691 26.5489 0 0 -8.29978 22.4665 12.2797 24.8789 2.38419e-05 1.78814e-05 -2.59276e-06 -8.53774e-07 -33.0518 20.3376 -2.38419e-05 0 5.02551 -0.25444 -12.2471 0.0062 0.0497 0.0339 0 0 0 0 0.0215 0 0 0 0 0 0.022 0 0 0 0 0 0.017 0 0 0 0 -0.0068 0.0873 0.0207 0 0 0 0 0.0267 0 0 0 0 0 0.0213 0 0 0 0 0 0.018 0 0 0 0 -0.0067 0.0922 0.0055 0 0 0 0 0.0266 0 0 0 0 0 0.0228 0 0 0 0 0 0.015 0 0 0 0 -0.0067 0.0925 -0.0113 0 0 0 0 0.0247 0 0 0 0 0 0.0221 0 0 0 0 0 0.018 0 0 0 0 -0.0066 0.0935 -0.0272 0 0 0 0 0.0163 0 0 0 0 0 0.0171 0 0 0 0 0 0.018 0 0 0 0 -5.96046e-06 48.1607 -2.38419e-05 55.2848 -2.56132e-06 -1.3918 -29.3165 -5.96046e-06 0 9.95901 19.0723 -11.7917 -24.2478 -5.96046e-06 1.19209e-05 2.03448e-06 1.70755e-06 24.6552 -20.681 0 0 1.13045 -0.91468 -15.5525 -0.0062 0.0497 0.0339 0 0 0 0 0.0215 0 0 0 0 0 0.022 0 0 0 0 0 0.017 0 0 0 0 0.0068 0.0873 0.0207 0 0 0 0 0.0267 0 0 0 0 0 0.0213 0 0 0 0 0 0.018 0 0 0 0 0.0067 0.0922 0.0055 0 0 0 0 0.0266 0 0 0 0 0 0.0228 0 0 0 0 0 0.015 0 0 0 0 0.0067 0.0925 -0.0113 0 0 0 0 0.0247 0 0 0 0 0 0.0221 0 0 0 0 0 0.018 0 0 0 0 0.0066 0.0935 -0.0272 0 0 0 0 0.0163 0 0 0 0 0 0.0171 0 0 0 0 0 0.018 0 0 0 0 -5.96046e-06 48.1607 -2.38419e-05 54.7104 -49.7445 47.1571 -1.19209e-05 3.81914 0 6.51003e-06 -8.53774e-06 -2.13443e-06 
0.66512 11.7798 -223.321 57.1878 82.3717 -62.3112 7.29367 -5.44705 4.30365 153.636 -61.7806 157.077 2.98023e-06 -40.6393 -3.57628e-05 -6.59984 64.5494 3.97351e-06 -1.86265e-06 -32.6791 -1.19209e-05 39.942 -53.9719 47.2905 -7.16479 -4.42009 5.1534 169.851 -67.1982 169.606 2.98023e-06 -40.5889 -1.19209e-05 2.2896 66.0951 1.26417e-05 2.98023e-06 -31.581 0 -22.5159 -28.6688 -22.6006 2.98023e-06 4.55139 -4.55134 0.0325717 -41.8433 0.199602 -1.19209e-05 48.1607 -3.57628e-05 -56.8805 6.83019e-06 0.722225 26.9141 1.19209e-05 1.19209e-05 -7.54098 9.13612 10.2384 24.2213 -3.57628e-05 5.96046e-05 8.33852e-06 3.4151e-06 -46.9154 18.5785 2.38419e-05 -2.38419e-05 9.56263 -1.38297 -28.9841 0.0062 0.0497 0.0339 0 0 0 0 0.0215 0 0 0 0 0 0.022 0 0 0 0 0 0.017 0 0 0 0 -0.0068 0.0873 0.0207 0 0 0 0 0.0267 0 0 0 0 0 0.0213 0 0 0 0 0 0.018 0 0 0 0 -0.0067 0.0922 0.0055 0 0 0 0 0.0266 0 0 0 0 0 0.0228 0 0 0 0 0 0.015 0 0 0 0 -0.0067 0.0925 -0.0113 0 0 0 0 0.0247 0 0 0 0 0 0.0221 0 0 0 0 0 0.018 0 0 0 0 -0.0066 0.0935 -0.0272 0 0 0 0 0.0163 0 0 0 0 0 0.0171 0 0 0 0 0 0.018 0 0 0 0 -1.19209e-05 48.1607 -3.57628e-05 55.5327 -6.83019e-06 -0.659645 -29.4674 -1.19209e-05 -2.38419e-05 12.0281 15.7502 -8.02903 -23.6972 -2.98023e-06 0 3.31058e-07 3.4151e-06 42.7512 -17.8513 -1.78814e-05 0 -14.3913 0.718507 -11.3663 -0.0062 0.0497 0.0339 0 0 0 0 0.0215 0 0 0 0 0 0.022 0 0 0 0 0 0.017 0 0 0 0 0.0068 0.0873 0.0207 0 0 0 0 0.0267 0 0 0 0 0 0.0213 0 0 0 0 0 0.018 0 0 0 0 0.0067 0.0922 0.0055 0 0 0 0 0.0266 0 0 0 0 0 0.0228 0 0 0 0 0 0.015 0 0 0 0 0.0067 0.0925 -0.0113 0 0 0 0 0.0247 0 0 0 0 0 0.0221 0 0 0 0 0 0.018 0 0 0 0 0.0066 0.0935 -0.0272 0 0 0 0 0.0163 0 0 0 0 0 0.0171 0 0 0 0 0 0.018 0 0 0 0 -1.19209e-05 48.1607 -3.57628e-05 47.4363 -46.8685 38.4723 -2.98023e-06 3.76049 -1.19209e-05 1.0272e-05 -5.97642e-06 -1.81427e-06 
0.734812 14.0645 -222.552 43.7697 80.9547 -48.8008 7.40281 -5.46432 4.43093 151.441 -65.8018 154.514 2.98023e-06 -40.8456 0 -5.75175 62.4921 2.31064e-06 0 -33.3141 -1.19209e-05 38.4598 -52.5205 45.5918 -7.25626 -4.49526 5.40438 167.442 -71.2455 167.788 0 -40.7749 2.38419e-05 2.16393 62.8652 1.12318e-05 0 -32.3309 -2.38419e-05 -22.9233 -28.5461 -23.1133 2.98023e-06 4.57106 -4.57107 0.121967 -42.4183 0.214131 -2.98023e-06 48.1607 -2.38419e-05 -56.8622 1.70755e-05 -0.260774 27.1928 -5.96046e-06 1.19209e-05 -6.9549 2.87053 7.4969 23.3081 2.98023e-05 0 1.23e-05 0 -69.6922 17.7649 -1.19209e-05 0 9.21208 -1.39971 -33.4609 0.0062 0.0497 0.0339 0 0 0 0 0.0215 0 0 0 0 0 0.022 0 0 0 0 0 0.017 0 0 0 0 -0.0068 0.0873 0.0207 0 0 0 0 0.0267 0 0 0 0 0 0.0213 0 0 0 0 0 0.018 0 0 0 0 -0.0067 0.0922 0.0055 0 0 0 0 0.0266 0 0 0 0 0 0.0228 0 0 0 0 0 0.015 0 0 0 0 -0.0067 0.0925 -0.0113 0 0 0 0 0.0247 0 0 0 0 0 0.0221 0 0 0 0 0 0.018 0 0 0 0 -0.0066 0.0935 -0.0272 0 0 0 0 0.0163 0 0 0 0 0 0.0171 0 0 0 0 0 0.018 0 0 0 0 -2.98023e-06 48.1607 -2.38419e-05 55.2375 -3.4151e-06 0.239327 -29.6293 -2.98023e-06 -2.38419e-05 14.2354 15.1913 -5.51091 -22.8919 1.49012e-05 1.19209e-05 5.56003e-06 6.83018e-06 65.0606 -16.98 -2.98023e-06 0 -16.434 -1.32835 12.1243 -0.0062 0.0497 0.0339 0 0 0 0 0.0215 0 0 0 0 0 0.022 0 0 0 0 0 0.017 0 0 0 0 0.0068 0.0873 0.0207 0 0 0 0 0.0267 0 0 0 0 0 0.0213 0 0 0 0 0 0.018 0 0 0 0 0.0067 0.0922 0.0055 0 0 0 0 0.0266 0 0 0 0 0 0.0228 0 0 0 0 0 0.015 0 0 0 0 0.0067 0.0925 -0.0113 0 0 0 0 0.0247 0 0 0 0 0 0.0221 0 0 0 0 0 0.018 0 0 0 0 0.0066 0.0935 -0.0272 0 0 0 0 0.0163 0 0 0 0 0 0.0171 0 0 0 0 0 0.018 0 0 0 0 -2.98023e-06 48.1607 -2.38419e-05 43.3778 -37.8496 30.1049 -5.96046e-06 3.93008 -2.38419e-05 4.88252e-06 -1.02453e-05 -4.26887e-07 
0.692418 18.5989 -221.463 30.0269 78.2976 -34.4818 7.5551 -5.50113 4.68906 146.164 -71.9834 148.964 7.45058e-07 -41.1898 1.19209e-05 -4.76444 57.6674 4.38993e-06 -1.44355e-06 -35.1472 0 35.1311 -50.206 41.4741 -7.39058 -4.62844 5.72606 163.804 -77.6628 164.665 2.98023e-06 -41.0695 0 2.4346 56.5626 6.97242e-06 -1.49012e-06 -34.2281 0 -23.1995 -27.426 -23.2018 -5.96046e-06 4.60181 -4.60185 0.23606 -43.0597 0.275132 -2.98023e-06 48.1607 1.19209e-05 -55.97 1.19528e-05 -0.849922 27.3395 -5.96046e-06 2.38419e-05 -8.42514 3.04707 2.19465 22.7303 1.19209e-05 -1.19209e-05 1.54879e-05 5.12264e-06 -71.6983 20.1228 0 -3.57628e-05 9.72258 -1.32387 -38.9183 0.0062 0.0497 0.0339 0 0 0 0 0.0215 0 0 0 0 0 0.022 0 0 0 0 0 0.017 0 0 0 0 -0.0068 0.0873 0.0207 0 0 0 0 0.0267 0 0 0 0 0 0.0213 0 0 0 0 0 0.018 0 0 0 0 -0.0067 0.0922 0.0055 0 0 0 0 0.0266 0 0 0 0 0 0.0228 0 0 0 0 0 0.015 0 0 0 0 -0.0067 0.0925 -0.0113 0 0 0 0 0.0247 0 0 0 0 0 0.0221 0 0 0 0 0 0.018 0 0 0 0 -0.0066 0.0935 -0.0272 0 0 0 0 0.0163 0 0 0 0 0 0.0171 0 0 0 0 0 0.018 0 0 0 0 -2.98023e-06 48.1607 1.19209e-05 55.1876 -8.53774e-06 0.780047 -29.788 0 -2.38419e-05 15.5206 18.9204 0.562399 -22.0709 5.96046e-06 1.19209e-05 7.82407e-06 3.4151e-06 83.5774 -18.5152 1.19209e-05 -2.38419e-05 -21.3867 -1.08928 6.57893 -0.0062 0.0497 0.0339 0 0 0 0 0.0215 0 0 0 0 0 0.022 0 0 0 0 0 0.017 0 0 0 0 0.0068 0.0873 0.0207 0 0 0 0 0.0267 0 0 0 0 0 0.0213 0 0 0 0 0 0.018 0 0 0 0 0.0067 0.0922 0.0055 0 0 0 0 0.0266 0 0 0 0 0 0.0228 0 0 0 0 0 0.015 0 0 0 0 0.0067 0.0925 -0.0113 0 0 0 0 0.0247 0 0 0 0 0 0.0221 0 0 0 0 0 0.018 0 0 0 0 0.0066 0.0935 -0.0272 0 0 0 0 0.0163 0 0 0 0 0 0.0171 0 0 0 0 0 0.018 0 0 0 0 -2.98023e-06 48.1607 1.19209e-05 37.4381 -24.2137 17.4328 -1.11759e-05 4.02784 1.19209e-05 7.09699e-06 -1.19528e-05 0 
0.62503 22.569 -220.724 31.1394 77.0042 -36.4911 7.59486 -5.25358 4.90962 135.561 -74.3662 137.598 -1.67638e-06 -41.671 2.38419e-05 -6.6376 52.7035 1.40901e-06 -1.49012e-06 -36.6077 0 32.1742 -47.3384 37.7989 -7.37814 -4.62873 5.76259 153.283 -80.4668 153.518 -2.98023e-06 -42.2263 -2.38419e-05 0.868838 51.4658 4.11139e-06 2.98023e-06 -35.7798 0 -22.7581 -26.5025 -22.589 0 4.39062 -4.39062 0.270521 -43.097 0.21282 -8.9407e-06 48.1607 -2.38419e-05 -55.9651 1.02453e-05 1.58385 27.1984 -3.57628e-05 -1.19209e-05 -6.32592 3.38552 -0.438017 22.2995 5.96046e-06 2.38419e-05 2.50831e-05 6.83019e-06 -74.7675 20.9016 0 0 11.7744 -1.32175 -42.7276 0.0062 0.0497 0.0339 0 0 0 0 0.0215 0 0 0 0 0 0.022 0 0 0 0 0 0.017 0 0 0 0 -0.0068 0.0873 0.0207 0 0 0 0 0.0267 0 0 0 0 0 0.0213 0 0 0 0 0 0.018 0 0 0 0 -0.0067 0.0922 0.0055 0 0 0 0 0.0266 0 0 0 0 0 0.0228 0 0 0 0 0 0.015 0 0 0 0 -0.0067 0.0925 -0.0113 0 0 0 0 0.0247 0 0 0 0 0 0.0221 0 0 0 0 0 0.018 0 0 0 0 -0.0066 0.0935 -0.0272 0 0 0 0 0.0163 0 0 0 0 0 0.0171 0 0 0 0 0 0.018 0 0 0 0 -8.9407e-06 48.1607 -2.38419e-05 53.4547 -5.12264e-06 -1.51121 -28.5054 -1.3411e-05 1.19209e-05 14.6883 22.5887 5.98162 -22.1587 -1.19209e-05 0 -3.23122e-05 1.53679e-05 79.7809 -20.8052 -5.96046e-06 -1.19209e-05 -19.21 -1.3783 11.7408 -0.0062 0.0497 0.0339 0 0 0 0 0.0215 0 0 0 0 0 0.022 0 0 0 0 0 0.017 0 0 0 0 0.0068 0.0873 0.0207 0 0 0 0 0.0267 0 0 0 0 0 0.0213 0 0 0 0 0 0.018 0 0 0 0 0.0067 0.0922 0.0055 0 0 0 0 0.0266 0 0 0 0 0 0.0228 0 0 0 0 0 0.015 0 0 0 0 0.0067 0.0925 -0.0113 0 0 0 0 0.0247 0 0 0 0 0 0.0221 0 0 0 0 0 0.018 0 0 0 0 0.0066 0.0935 -0.0272 0 0 0 0 0.0163 0 0 0 0 0 0.0171 0 0 0 0 0 0.018 0 0 0 0 -8.9407e-06 48.1607 -2.38419e-05 48.4677 -34.9337 32.8828 -8.9407e-06 3.63128 1.19209e-05 9.70872e-06 -6.83019e-06 2.16909e-07 
0.575959 28.1996 -219.839 24.5184 73.8595 -29.9403 7.724 -5.35357 5.07745 109.677 -79.0331 111.377 -3.72529e-07 -43.4807 4.76837e-05 -6.25435 45.916 1.84079e-06 -2.98023e-06 -37.9281 -3.57628e-05 28.1448 -43.3245 32.8486 -7.51064 -4.7308 5.92013 108.405 -86.0553 108.745 -5.96046e-06 -43.7124 0 1.51438 43.9846 2.96644e-06 0 -37.7395 0 -22.0227 -24.8579 -21.5362 5.96046e-06 4.47174 -4.47171 0.286531 -43.4331 0.193948 -1.19209e-05 48.1607 2.38419e-05 -54.9871 1.53679e-05 2.07356 26.7027 0 0 -4.80755 -6.05015 2.02243 21.7858 -1.19209e-05 -2.38419e-05 1.30895e-05 -2.32231e-06 -117.622 16.6663 1.49012e-06 -1.3411e-05 6.76926 3.21809 14.5312 0.0062 0.0497 0.0339 0 0 0 0 0.0215 0 0 0 0 0 0.022 0 0 0 0 0 0.017 0 0 0 0 -0.0068 0.0873 0.0207 0 0 0 0 0.0267 0 0 0 0 0 0.0213 0 0 0 0 0 0.018 0 0 0 0 -0.0067 0.0922 0.0055 0 0 0 0 0.0266 0 0 0 0 0 0.0228 0 0 0 0 0 0.015 0 0 0 0 -0.0067 0.0925 -0.0113 0 0 0 0 0.0247 0 0 0 0 0 0.0221 0 0 0 0 0 0.018 0 0 0 0 -0.0066 0.0935 -0.0272 0 0 0 0 0.0163 0 0 0 0 0 0.0171 0 0 0 0 0 0.018 0 0 0 0 -1.19209e-05 48.1607 2.38419e-05 51.6222 -1.70755e-06 -2.00137 -27.6654 -1.75089e-05 1.19209e-05 16.866 25.4028 5.83338 -22.712 0 0 7.83725e-06 6.83018e-06 75.8608 -22.5065 -5.96046e-06 0 -17.9068 -1.49804 17.1715 -0.0062 0.0497 0.0339 0 0 0 0 0.0215 0 0 0 0 0 0.022 0 0 0 0 0 0.017 0 0 0 0 0.0068 0.0873 0.0207 0 0 0 0 0.0267 0 0 0 0 0 0.0213 0 0 0 0 0 0.018 0 0 0 0 0.0067 0.0922 0.0055 0 0 0 0 0.0266 0 0 0 0 0 0.0228 0 0 0 0 0 0.015 0 0 0 0 0.0067 0.0925 -0.0113 0 0 0 0 0.0247 0 0 0 0 0 0.0221 0 0 0 0 0 0.018 0 0 0 0 0.0066 0.0935 -0.0272 0 0 0 0 0.0163 0 0 0 0 0 0.0171 0 0 0 0 0 0.018 0 0 0 0 -1.19209e-05 48.1607 2.38419e-05 59.62 18.1757 -28.0175 -1.19209e-05 2.39323 1.19209e-05 1.02453e-05 -6.83019e-06 1.70755e-06 
